# xmcd
#
# Track frame offsets: 
#        150
#        23839
#        49754
#        73649
#        96826
#        120902
#        144285
#        167654
#        192514
#        218182
#
# Disc length: 3247 seconds
#
# Revision: 0
# Processed by: cddbd v1.5.2PL0 Copyright (c) Steve Scherf et al.
# Submitted via: ExactAudioCopy v0.95b3
#
DISCID=870cad0a
DTITLE=Egolgotha - Pure Gold
DYEAR=1997
DGENRE=Gospel
TTITLE0=Ujesu Ulidwala
TTITLE1=Mangisondele
TTITLE2=Lapho Izivunguvungu
TTITLE3=Ngikokhele Oh! Jehova
TTITLE4=Egolgotha
TTITLE5=Kungegazi
TTITLE6=Ekhalivari
TTITLE7=Isonto Lama Zayoni Isonto Lamaqhawe
TTITLE8=Nkosi Yami Ngafunyanwa
TTITLE9=Mphefumlo Wami
EXTD=
EXTT0=
EXTT1=
EXTT2=
EXTT3=
EXTT4=
EXTT5=
EXTT6=
EXTT7=
EXTT8=
EXTT9=
PLAYORDER=
